<svg xmlns="http://www.w3.org/2000/svg" viewBox="0 0 80.37 91.9"><defs><style>.cls-1{fill:#c2ab7e;}.cls-2{fill:none;}.cls-3{fill:#f6ec88;}.cls-4{fill:#e7dce9;}</style></defs><g id="Calque_2" data-name="Calque 2"><g id="Calque_1-2" data-name="Calque 1"><polygon class="cls-1" points="80.36 21.12 80.36 74.26 52.67 87.73 44.32 91.79 44.09 91.9 34.77 87.36 7.7 74.2 7.7 33.49 16.64 29 16.64 70.05 27.08 75.17 43.34 83.16 43.35 83.16 44.32 82.68 59.61 75.17 70.55 69.81 71.43 69.37 71.43 25.48 71.39 25.48 44.32 25.43 23.8 25.4 33.77 20.38 44.32 15.08 47.15 13.65 56.04 9.19 80.36 21.12"/><path class="cls-2" d="M71.39,25.48l0,0v0Z"/><path class="cls-3" d="M71.39,25.48l-27.07-.05-20.52,0L16.64,29V70.05l10.44,5.12,16.26,8h0l1-.48,15.29-7.51,10.94-5.36.88-.44V25.5ZM29,65.35a2.59,2.59,0,0,1-1.3,1,5.5,5.5,0,0,1-1.95.31h-.87V69a.3.3,0,0,1-.1.24.29.29,0,0,1-.23.1H22a.29.29,0,0,1-.23-.1.3.3,0,0,1-.1-.24V61a.34.34,0,0,1,.33-.34h3.75a5.27,5.27,0,0,1,1.95.33A2.74,2.74,0,0,1,29,62a2.93,2.93,0,0,1,.46,1.7A2.79,2.79,0,0,1,29,65.35ZM30.2,53.78a.78.78,0,0,1-.25.59.81.81,0,0,1-.59.25H23a.85.85,0,0,1-.84-.84V33.59a.85.85,0,0,1,.84-.84h6.38A.85.85,0,0,1,30,33a.81.81,0,0,1,.25.59Zm8.1,15.44a.26.26,0,0,1-.2.08H35.58a.5.5,0,0,1-.37-.12.66.66,0,0,1-.16-.22L34,66.61h-.5V69a.3.3,0,0,1-.11.24.28.28,0,0,1-.23.1H30.72a.29.29,0,0,1-.23-.1.3.3,0,0,1-.1-.24V61a.34.34,0,0,1,.33-.34h3.66a4.32,4.32,0,0,1,2.78.81,2.66,2.66,0,0,1,1,2.19,2.71,2.71,0,0,1-.38,1.44,3,3,0,0,1-1,1l1.51,2.82a.27.27,0,0,1,0,.33Zm9-3.13a3.35,3.35,0,0,1-.57,1.84,3.2,3.2,0,0,1-1.43,1.12,4.4,4.4,0,0,1-1,.27,6.15,6.15,0,0,1-1.17.1A5.54,5.54,0,0,1,41,69.05a3.23,3.23,0,0,1-1.44-1.12A3.52,3.52,0,0,1,39,66.09c0-.34,0-.69,0-1.08s0-.74,0-1.1a3.54,3.54,0,0,1,.57-1.83A3.23,3.23,0,0,1,41,60.93a5.17,5.17,0,0,1,2.12-.4,5.53,5.53,0,0,1,1.17.11,4.13,4.13,0,0,1,1,.29,3.19,3.19,0,0,1,2,3c0,.36,0,.72,0,1.1S47.29,65.75,47.27,66.09Zm.55-12.25-.75-2.06H40.36l-.76,2.06a1.49,1.49,0,0,1-.34.52,1.21,1.21,0,0,1-.87.26H32.6a.63.63,0,0,1-.48-.2.67.67,0,0,1-.2-.48.69.69,0,0,1,0-.22l2.15-6.15,4.82-13.79a1.52,1.52,0,0,1,.43-.68,1.32,1.32,0,0,1,1-.35H47.1a1.31,1.31,0,0,1,1,.35,1.64,1.64,0,0,1,.44.68l4.83,13.83,2.14,6.11a.69.69,0,0,1,0,.22.64.64,0,0,1-.21.48.62.62,0,0,1-.48.2H49a1.23,1.23,0,0,1-.86-.26A1.44,1.44,0,0,1,47.82,53.84ZM57.62,69a.32.32,0,0,1-.33.34H55.06a.31.31,0,0,1-.24-.1.3.3,0,0,1-.1-.24V65.59l-.81,1.33a1.4,1.4,0,0,1-.17.2.4.4,0,0,1-.29.11h-.86a.38.38,0,0,1-.29-.11,1,1,0,0,1-.17-.2l-.82-1.33V69a.3.3,0,0,1-.1.24.29.29,0,0,1-.23.1H48.74a.32.32,0,0,1-.23-.1.3.3,0,0,1-.1-.24V61a.33.33,0,0,1,.1-.24.37.37,0,0,1,.23-.1h2a.5.5,0,0,1,.37.14,1.51,1.51,0,0,1,.16.2L53,64l1.8-3a1,1,0,0,1,.16-.2.47.47,0,0,1,.37-.14h1.95a.37.37,0,0,1,.24.1.36.36,0,0,1,.09.24Zm-.14-14.59a.79.79,0,0,1-.26-.59V33.59a.87.87,0,0,1,.85-.84h6.37a.87.87,0,0,1,.85.84V53.78a.79.79,0,0,1-.26.59.78.78,0,0,1-.59.25H58.07A.78.78,0,0,1,57.48,54.37ZM67,66.09a3.43,3.43,0,0,1-.57,1.84A3.17,3.17,0,0,1,65,69.05a6.23,6.23,0,0,1-4.23,0,3.15,3.15,0,0,1-1.43-1.12,3.35,3.35,0,0,1-.58-1.84c0-.34,0-.69,0-1.08s0-.74,0-1.1a3.36,3.36,0,0,1,.57-1.83,3.2,3.2,0,0,1,1.43-1.15,5.84,5.84,0,0,1,4.25,0,3.23,3.23,0,0,1,1.44,1.15A3.28,3.28,0,0,1,67,63.91c0,.36,0,.72,0,1.1S67,65.75,67,66.09Z"/><path class="cls-3" d="M26.26,63.65a.65.65,0,0,1-.18.52.62.62,0,0,1-.39.15h-.86V63h.86a.45.45,0,0,1,.45.24A1,1,0,0,1,26.26,63.65Z"/><path class="cls-3" d="M34.94,63.63a.74.74,0,0,1-.13.44.5.5,0,0,1-.43.19h-.9V63h.9a.45.45,0,0,1,.43.22A.82.82,0,0,1,34.94,63.63Z"/><path class="cls-3" d="M63.83,65c0,.34,0,.69,0,1a1.11,1.11,0,0,1-.26.77.88.88,0,0,1-.65.24.87.87,0,0,1-.65-.24A1.16,1.16,0,0,1,62,66c0-.35,0-.7,0-1s0-.69,0-1a1.5,1.5,0,0,1,.13-.57.85.85,0,0,1,.32-.33,1.2,1.2,0,0,1,.47-.1,1.08,1.08,0,0,1,.46.1.78.78,0,0,1,.32.33,1.33,1.33,0,0,1,.13.57C63.82,64.28,63.83,64.62,63.83,65Z"/><path class="cls-3" d="M44.08,65c0,.34,0,.69,0,1a1,1,0,0,1-.26.77,1,1,0,0,1-1.3,0,1.16,1.16,0,0,1-.27-.77c0-.35,0-.7,0-1s0-.69,0-1a1.33,1.33,0,0,1,.13-.57.85.85,0,0,1,.32-.33,1.16,1.16,0,0,1,.47-.1,1.12,1.12,0,0,1,.47.1.83.83,0,0,1,.31.33,1.2,1.2,0,0,1,.13.57C44.08,64.28,44.08,64.62,44.08,65Z"/><polygon class="cls-3" points="45.48 45.68 41.95 45.68 43.7 39.88 44.32 41.91 45.48 45.68"/><line class="cls-2" x1="67.29" y1="34.7" x2="66.82" y2="34.92"/><polygon class="cls-4" points="4.8 34.95 4.8 64.23 1.89 62.81 0 61.88 0 37.36 1.89 36.41 4.8 34.95"/><path class="cls-4" d="M68.27,0,51.35,0H44L40.68,1.64,37.4,3.26l-.4.19L31.63,6.09,7.7,17.83,4.8,19.26,1.89,20.68,0,21.61V37.36l1.89-1L7.7,33.49,16.64,29l7.16-3.6,10-5,10.55-5.3,2.83-1.43L56,9.18l11.4-5.73.27-.14L74.19.06ZM44.32,3.47v0h0Z"/></g></g></svg>